<svg width="24" height="24" viewBox="0 0 24 24" fill="none" xmlns="http://www.w3.org/2000/svg">
<g clip-path="url(#clip0_180_5649)">
<path d="M5.49976 17.0002C6.32818 17.0002 6.99976 16.3287 6.99976 15.5002C6.99976 14.6718 6.32818 14.0002 5.49976 14.0002C4.67133 14.0002 3.99976 14.6718 3.99976 15.5002C3.99976 16.3287 4.67133 17.0002 5.49976 17.0002Z" fill="currentColor"/>
<path d="M21 3H3C2.20435 3 1.44129 3.31607 0.87868 3.87868C0.31607 4.44129 0 5.20435 0 6L0 21H24V6C24 5.20435 23.6839 4.44129 23.1213 3.87868C22.5587 3.31607 21.7956 3 21 3ZM3 5H21C21.2652 5 21.5196 5.10536 21.7071 5.29289C21.8946 5.48043 22 5.73478 22 6V8H2V6C2 5.73478 2.10536 5.48043 2.29289 5.29289C2.48043 5.10536 2.73478 5 3 5ZM2 19V10H22V19H2Z" fill="currentColor"/>
</g>
<defs>
<clipPath id="clip0_180_5649">
<rect width="24" height="24" fill="white"/>
</clipPath>
</defs>
</svg>
