<svg width="24" height="24" viewBox="0 0 24 24" fill="none" xmlns="http://www.w3.org/2000/svg">
<path d="M11.9998 5C13.1043 5 13.9997 4.10457 13.9997 3C13.9997 1.89543 13.1043 1 11.9998 1C10.8952 1 9.99976 1.89543 9.99976 3C9.99976 4.10457 10.8952 5 11.9998 5Z" fill="currentColor"/>
<path d="M11.9998 14.0002C13.1043 14.0002 13.9997 13.1048 13.9997 12.0002C13.9997 10.8957 13.1043 10.0002 11.9998 10.0002C10.8952 10.0002 9.99976 10.8957 9.99976 12.0002C9.99976 13.1048 10.8952 14.0002 11.9998 14.0002Z" fill="currentColor"/>
<path d="M11.9998 22.9998C13.1043 22.9998 13.9997 22.1043 13.9997 20.9998C13.9997 19.8952 13.1043 18.9998 11.9998 18.9998C10.8952 18.9998 9.99976 19.8952 9.99976 20.9998C9.99976 22.1043 10.8952 22.9998 11.9998 22.9998Z" fill="currentColor"/>
</svg>
