<svg width="184" height="184" viewBox="0 0 184 184" fill="none" xmlns="http://www.w3.org/2000/svg">
<path d="M72.187 30.6029L46.9275 95.6064L34.7393 127.048C34.1505 128.461 33.8561 129.875 33.8561 131.288C33.8561 132.701 34.4449 134.232 35.6225 135.88C36.9179 137.411 38.8609 138.177 41.4516 138.177H42.8647V139.943H7.36011V138.177H8.94987C11.7761 138.177 14.5435 137.352 17.2519 135.704C19.9604 133.937 22.1979 131.347 23.9643 127.932L67.771 23.0074C71.0001 28.5 69.4438 25.8769 72.187 30.6029ZM72.187 30.6029C68.6591 24.5 67.771 23.0074 72.187 30.6029V30.6029Z" fill="#000906"/>
<path d="M28.97 10.2893C36.6244 7.10978 43.9844 5.52002 51.05 5.52002C56.938 5.52002 63.0026 7.69858 69.2439 12.0557C72.6589 14.4109 76.4861 19.0035 80.7255 25.8336C83.5517 30.544 87.1434 39.0816 91.5005 51.4464L113.051 112.564C117.997 126.224 123.001 137.058 128.065 145.066C133.246 153.191 137.957 159.256 142.196 163.26C146.436 167.381 150.852 170.266 155.444 171.915C160.037 173.564 163.805 174.388 166.749 174.388C169.811 174.388 172.519 174.152 174.875 173.681L175.051 175.448C169.399 177.332 163.864 178.274 158.447 178.274C153.03 178.274 147.613 176.861 142.196 174.035C136.779 171.326 131.716 167.499 127.005 162.553C116.878 152.308 108.281 136.705 101.216 115.743L94.3268 95.6064L71.1869 30.6029C68.9495 26.128 69.2439 26.5336 66.7709 23.0074C60.4119 13.9399 52.522 9.4061 43.1012 9.4061C38.8618 9.4061 34.3281 10.2893 29.4999 12.0557L28.97 10.2893ZM71.1869 30.6029L94.3268 95.6064L78.6058 49.1501C75.8973 41.2602 73.4244 35.0778 71.1869 30.6029Z" fill="#000906"/>
<path fill-rule="evenodd" clip-rule="evenodd" d="M94.044 125.355C88.7049 122.325 81.9685 119.122 73.4781 115.92C14.5046 93.6762 22.4365 29.44 22.4365 29.44C22.4365 29.44 31.7162 54.28 63.0377 70.84C104.102 92.551 114.08 143.52 114.08 143.52C114.08 143.52 113.74 142.351 112.356 140.353C108.372 133.204 98.1629 115.832 88.9334 108.045C84.0267 103.905 64.4001 90.16 64.4001 90.16C64.4001 90.16 85.2321 107.888 89.9147 115C91.8668 117.965 93.1717 121.694 94.044 125.355Z" fill="url(#paint0_linear_471_19274)"/>
<defs>
<linearGradient id="paint0_linear_471_19274" x1="117" y1="138" x2="21.5001" y2="27.0001" gradientUnits="userSpaceOnUse">
<stop/>
<stop offset="0.322917" stop-opacity="0"/>
</linearGradient>
</defs>
</svg>
