<svg width="184" height="184" viewBox="0 0 184 184" fill="none" xmlns="http://www.w3.org/2000/svg">
<path d="M72.1869 30.6029L46.9273 95.6064L34.7392 127.048C34.1504 128.461 33.856 129.875 33.856 131.288C33.856 132.701 34.4448 134.232 35.6224 135.88C36.9177 137.411 38.8608 138.177 41.4515 138.177H42.8646V139.943H7.35999V138.177H8.94975C11.776 138.177 14.5433 137.352 17.2518 135.704C19.9603 133.937 22.1977 131.347 23.9641 127.932L67.7709 23.0074C71 28.5 69.4437 25.8769 72.1869 30.6029ZM72.1869 30.6029C68.659 24.5 67.7709 23.0074 72.1869 30.6029V30.6029Z" fill="#000906"/>
<path d="M28.97 10.2893C36.6244 7.10978 43.9844 5.52002 51.05 5.52002C56.938 5.52002 63.0026 7.69858 69.2439 12.0557C72.6589 14.4109 76.4861 19.0035 80.7255 25.8336C83.5517 30.544 87.1434 39.0816 91.5005 51.4464L113.051 112.564C117.997 126.224 123.001 137.058 128.065 145.066C133.246 153.191 137.957 159.256 142.196 163.26C146.436 167.381 150.852 170.266 155.444 171.915C160.037 173.564 163.805 174.388 166.749 174.388C169.811 174.388 172.519 174.152 174.875 173.681L175.051 175.448C169.399 177.332 163.864 178.274 158.447 178.274C153.03 178.274 147.613 176.861 142.196 174.035C136.779 171.326 131.716 167.499 127.005 162.553C116.878 152.308 108.281 136.705 101.216 115.743L94.3268 95.6064L71.1869 30.6029C68.9495 26.128 69.2439 26.5336 66.7709 23.0074C60.4119 13.9399 52.522 9.4061 43.1012 9.4061C38.8618 9.4061 34.3281 10.2893 29.4999 12.0557L28.97 10.2893ZM71.1869 30.6029L94.3268 95.6064L78.6058 49.1501C75.8973 41.2602 73.4244 35.0778 71.1869 30.6029Z" fill="url(#paint0_linear_471_19220)"/>
<defs>
<linearGradient id="paint0_linear_471_19220" x1="29" y1="10.5" x2="175" y2="174" gradientUnits="userSpaceOnUse">
<stop/>
<stop offset="0.651042" stop-color="#F8F9F9"/>
</linearGradient>
</defs>
</svg>
